<?xml version="1.0" encoding="UTF-8" standalone="no"?>
<svg
   width="32"
   height="32"
   viewBox="0 0 32 32"
   fill="none"
   version="1.1"
   id="svg3"
   sodipodi:docname="Pause_fill.svg"
   inkscape:version="1.3.2 (091e20e, 2023-11-25, custom)"
   xmlns:inkscape="http://www.inkscape.org/namespaces/inkscape"
   xmlns:sodipodi="http://sodipodi.sourceforge.net/DTD/sodipodi-0.dtd"
   xmlns="http://www.w3.org/2000/svg"
   xmlns:svg="http://www.w3.org/2000/svg">
  <defs
     id="defs3" />
  <sodipodi:namedview
     id="namedview3"
     pagecolor="#ffffff"
     bordercolor="#000000"
     borderopacity="0.25"
     inkscape:showpageshadow="2"
     inkscape:pageopacity="0.0"
     inkscape:pagecheckerboard="0"
     inkscape:deskcolor="#d1d1d1"
     inkscape:zoom="25.65625"
     inkscape:cx="16"
     inkscape:cy="15.961023"
     inkscape:window-width="1920"
     inkscape:window-height="1017"
     inkscape:window-x="-8"
     inkscape:window-y="-8"
     inkscape:window-maximized="1"
     inkscape:current-layer="svg3" />
  <path
     d="M 18.73481,23.446237 V 10.112887"
     stroke="#4d5562"
     stroke-width="2"
     stroke-linecap="round"
     id="path2" />
  <path
     d="M 13.40146,23.446237 V 10.112887"
     stroke="#4d5562"
     stroke-width="2"
     stroke-linecap="round"
     id="path3" />
  <path
     style="fill:#e5e7eb;fill-opacity:1;stroke:#e5e7eb;stroke-width:0.00553471;stroke-dasharray:none;stroke-opacity:1"
     d="m 13.07322,24.365559 c -0.21886,-0.07823 -0.402582,-0.239851 -0.52613,-0.462832 L 12.433618,23.697929 V 16.779537 9.8611449 L 12.54709,9.6563477 c 0.185913,-0.3355377 0.480692,-0.5115879 0.860949,-0.5141831 0.361446,-0.00247 0.758152,0.2650019 0.901344,0.6077074 0.07998,0.1914269 0.07998,13.867903 0,14.05933 -0.193856,0.463962 -0.769658,0.723112 -1.236163,0.556357 z"
     id="path8" />
  <path
     style="fill:#e5e7eb;fill-opacity:1;stroke:#e5e7eb;stroke-width:0.106;stroke-dasharray:none;stroke-opacity:1"
     d="m 18.446345,24.380192 c -0.171734,-0.05171 -0.364515,-0.186131 -0.475359,-0.331455 -0.230565,-0.302287 -0.217027,0.151152 -0.217027,-7.2692 0,-7.428931 -0.01354,-6.9738394 0.216458,-7.2753824 0.234166,-0.3070077 0.728467,-0.4454783 1.093114,-0.3062184 0.24449,0.093372 0.438755,0.2732323 0.547624,0.5070176 l 0.09089,0.195168 -4.75e-4,6.8794152 c -4.73e-4,6.837156 -9.63e-4,6.880493 -0.07987,7.054811 -0.106621,0.235542 -0.249829,0.381029 -0.484057,0.49176 -0.201855,0.09543 -0.481361,0.117295 -0.691292,0.05408 z"
     id="path9" />
  <path
     style="fill:#e5e7eb;fill-opacity:1;stroke:#e5e7eb;stroke-width:0.389705;stroke-dasharray:none;stroke-opacity:1"
     d="M 12.100658,24.26766 C 11.750389,24.150118 11.634867,24.085496 11.400652,23.876087 L 11.170658,23.670456 V 16.783243 9.8960308 l 0.185889,-0.1763594 c 0.366149,-0.3473799 0.773637,-0.4959779 1.360076,-0.4959779 0.393871,0 0.754913,0.083089 1.081267,0.2488401 0.456907,0.2320571 0.424102,-0.025739 0.487181,3.8286014 0.03296,2.013884 0.03296,4.942948 0,6.95683 -0.06254,3.819928 -0.03376,3.577015 -0.451537,3.815252 -0.435221,0.248189 -1.287686,0.343843 -1.732876,0.194443 z"
     id="path10" />
  <path
     style="fill:#e5e7eb;fill-opacity:1;stroke:#e5e7eb;stroke-width:0.143299;stroke-dasharray:none;stroke-opacity:1"
     d="m 18.939152,24.405422 c -0.386874,-0.07142 -0.833217,-0.28795 -1.001751,-0.485968 -0.172537,-0.202723 -0.202581,-1.262908 -0.202882,-7.159362 -2.89e-4,-5.668487 0.03247,-6.9215706 0.185731,-7.1026951 0.242667,-0.2868006 0.781554,-0.4875875 1.417092,-0.5280003 0.315962,-0.020091 0.416717,-0.00866 0.720068,0.081624 0.376627,0.1121042 0.756093,0.3479039 0.904466,0.5620352 0.07737,0.1116709 0.09028,1.0858382 0.08679,6.5541912 -0.0023,3.532665 -0.02586,6.668079 -0.05247,6.967589 -0.04593,0.516942 -0.05788,0.552721 -0.235666,0.705434 -0.394195,0.3386 -1.204954,0.518949 -1.821381,0.405152 z"
     id="path11" />
</svg>
